# xmcd
#
# Track frame offsets:
#	150
#	19947
#	43052
#	66782
#	88070
#	106972
#	125285
#	149642
#	168877
#	190122
#
# Disc length: 2844 seconds
#
# Revision: 1
# Processed by: cddbd v1.4PL0 Copyright (c) Steve Scherf et al.
# Submitted via: EasyCDDAExtractor 5.0.7
#
DISCID=880b1a0a
DTITLE=Various Artist - Yeu Anh Nhu Ngay Xua
DYEAR=1900
DGENRE=Vietnamese
TTITLE0=Ai Van - Sao Van Con Mua Roi
TTITLE1=Dalena - Nu Cuoi Xa Vang
TTITLE2=Ai Van - Hoang Vang
TTITLE3=Dalena - Co Don
TTITLE4=Ai Van - Yeu Anh Nhu Ngay Xua
TTITLE5=Dalena - Tinh Em Trao Anh
TTITLE6=Ai Van - Toi Voi Troi Bo Vo
TTITLE7=Dalena - Dau Tinh Sau
TTITLE8=Ai Van - Quen Chua Nhung Dau Yeu
TTITLE9=Dalena - Em Di Roi
EXTD=
EXTT0=
EXTT1=
EXTT2=
EXTT3=
EXTT4=
EXTT5=
EXTT6=
EXTT7=
EXTT8=
EXTT9=
PLAYORDER=
